<?xml version="1.0" encoding="UTF-8"?>
<svg version="1.2" baseProfile="tiny" viewBox="0 0 1600 1600" width="100" height="100" xmlns="http://www.w3.org/2000/svg">
<path transform="translate(0)" d="m0 0h1600v1600h-1600z" fill="#353635"/>
<path transform="translate(895,698)" d="m0 0h29l15 3 13 5 11 7 12 11 10 12 5 9 6 12 2 5 3 14v8l-3 5-9 2h-11l-10 1h-121l-5 1v11l4 15 7 14 11 13 12 9 10 5 12 3h17l14-3 12-5 14-9 10-9 7-8 9-8 6-4 4 1-1 18-4 8-13 15-10 9-11 7-15 5-13 2h-36l-15-3-10-5-13-10-10-10-9-12-8-16-4-10-3-16v-23l4-16 9-19 8-11 10-11 5-5 16-10 16-5z" fill="#FEFEFE"/>
<path transform="translate(491,719)" d="m0 0h21l14 3 15 8 12 11 7 8 8 13 3 9 1 6v23l-4 16-8 16-8 10-9 8-12 7-15 5-6 1h-15l-14-3-16-8-11-9-9-11-9-19-2-7-1-17 2-15 5-16 5-10 9-11 16-11 11-5z" fill="#353635"/>
<path transform="translate(1288,719)" d="m0 0h14l16 3 12 6 9 7 13 13 6 13 2 7 1 9v18l-3 19-4 8-10 14-7 8-10 7-16 8-15 3h-10l-12-3-12-6-13-10-7-7-6-10-6-12-2-9v-28l4-15 6-12 7-9 8-8 14-9 13-4z" fill="#353635"/>
<path transform="translate(1282,698)" d="m0 0h31l12 2 13 5 12 7 10 8 8 8 8 13 8 16 4 13 2 13 1 30v35l-1 27-4 6-3 2h-6l-10-4-1-1v-17l3-9v-3l-5 5-7 6-14 10-8 5-15 5-16 2h-25l-14-2-11-4-10-6-11-9-11-12-7-10-7-14-5-19-1-9v-14l3-15 5-13 7-14 11-15 5-6 12-9 12-7 14-4zm6 21-16 3-12 6-10 8-8 8-8 13-4 11-2 9v28l3 12 9 16 9 10 13 10 12 6 12 3h10l15-3 16-8 11-8 10-12 9-14 3-14 1-8v-18l-2-13-5-12-4-6-14-14-13-8-13-4-8-1z" fill="#FEFEFE"/>
<path transform="translate(486,698)" d="m0 0h36l16 4 11 5 11 7 11 10 11 15 8 16 5 19 1 6v22l-2 12-6 16-9 16-9 10-7 7-11 8-14 7-14 3-9 1h-31l-13-2-13-5-13-9-12-11-7-10-9-16-6-18-2-13v-14l2-13 6-18 7-13 11-15 7-7 14-10 10-5 14-4zm5 21-13 3-13 7-13 10-8 11-5 10-5 19-1 13 1 14 4 12 9 17 10 11 13 9 11 5 14 3h15l16-4 14-7 10-8 8-9 8-14 5-16 1-5v-23l-3-13-7-12-7-9-10-10-11-7-11-5-11-2z" fill="#FEFEFE"/>
<path transform="translate(281,702)" d="m0 0h29l15 2 10 4 13 9 10 14 6 13 3 14 2 21v92l-2 8-3 2h-10l-5-3-2-3v-41l-1-61-2-14-4-11-8-11-8-7-10-5-5-1h-22l-12 3-16 8-9 7-6 10-4 14-3 32v59l1 11v9l-9 4h-8l-5-3-3-4-1-4-1-33v-48l3-28 6-17 8-14 14-14 10-6 12-5z" fill="#FEFEFE"/>
<path transform="translate(631,703)" d="m0 0 9 1 6 4 6 8 9 21 16 35 9 19 16 32 5 5h2l6-10 11-27 7-15 7-18 10-19 8-17 9-14 6-4h10l4 4-3 10-11 22-8 18-13 29-8 18-14 31-11 26-4 11-3 4-5-1-7-6-12-22-13-28-11-24-15-34-22-46-2-5 1-5z" fill="#FEFEFE"/>
<path transform="translate(901,717)" d="m0 0h10l19 3 12 6 13 10 13 13 5 8 3 10-7 1-63 2h-32l-23-1-5-2-1-3 4-11 5-8 8-9 8-7 8-6 10-4z" fill="#353635"/>
<path transform="translate(1163,703)" d="m0 0h21l6 5 1 4-4 3-11 5-17 7-14 11-7 8-7 14-3 16-2 29v70l-3 4-4 1h-7l-7-2-2-4-1-6v-15l-1-16v-26l2-28 3-17 5-14 7-13 8-11 9-10 8-6 16-8z" fill="#FEFEFE"/>
<path transform="translate(1046,703)" d="m0 0h7l9 3 1 6-1 164-4 3-3 1h-9l-5-2-1-1v-169z" fill="#FEFEFE"/>
<path transform="translate(998,788)" d="m0 0 1 4 2 1v11l1 2v7l-1 7-1 5-4 1-3-2-1 10-2 2v-18l-4 1-11 8-8 8-7 8-12 9-16 8-10 3-7 1h-17l-12-3-10-5-12-9-5-5 1-2 3-1 3 2h3l2 2 4 1 6 2 1 2h11l11 2 8-2h5l8-3 12-5 8-4 9-1 3 1v-2h3v-2l4-2v-2h2l1-4h3v-2h2v-2h2l-2-5-2-3v-3l-4-2-4-4-3-1-5-6-1-2h-27v2l2 1-2 1-4-2-1-3-3-1-1 2h-4l-9-1-23-1 2 1v4l2 1-6 4-5 2-2 2-1-5 6-4-6-4h-5l1 3-3 3-10 1-3 9-3 1-1-1-1 10-2-3-3-12v-8l1-3 5-2h121l11-1h10z" fill="#3F3F40"/>
<path transform="translate(559,749)" d="m0 0 4 4 7 14 2 10v23l-4 16-8 16-8 10-9 8-12 7-15 5-6 1h-15l-14-3-13-6 1-5 5 1 13-2h8l7 2h13l5-2h7v-2h2l1-2h3v-2l10-5 6-1v-2l4-1v-2h2v-2h2l1-7 2-3-2-4v-6l-2-3v-7l1-8v-7l4-9 1-4v-6l-1-1-1-9-2-4z" fill="#3F3F40"/>
<path transform="translate(437,766)" d="m0 0 3 1-1 6 2 4 4 4 1-3h3l-1 10 4 4-3 3h4l2 14 1 3v8l1-1v-8h1l2 7 2 5-1 3 1 2 1 6h6l9 3-1 3h-10v5h-5v-3l-4-1-1 2h2l1 4-5-3-10-12-9-19-2-7-1-17 2-15z" fill="#353635"/>
<path transform="translate(1062,706)" d="m0 0 3 2-1 8v3 13h2v10l2-12h1l1 8 1 3 3 1v3l4 2-2 2-6 1v6l1 5-1 3-1 9-2 5-3-1v40l3 1 4 10 2 6 1 17 4 9-1 5-1 9-5 5-3 2-8-1-4 3h-5l-9-3 4-1h9l6-3z" fill="#404041"/>
<path transform="translate(339,746)" d="m0 0 3 4 4 13 1 10 1 61v25l-3-3-2-4-1-8 1-4-8 2-1-4-1-22v-37l2-5-1-1v-7l3-6 3-3-1-6 1-2-2-1z" fill="#404041"/>
<path transform="translate(216,746)" d="m0 0h3l-2 9-2 6-3 28-1 72-5 2-2-5-4-24-1-11v-22l2-9 2-16 3-8h2l1-7 3-11z" fill="#2D2D2F"/>
<path transform="translate(1310,690)" d="m0 0 8 1 6 2 5-1 5 1v2l3 1-1 4 1 1 1-2h5l1 3 6 1 2 2 7 2 5 5 3 2v2h2v2l4 1 3 3h3l-1 8 4 5 2 8-4-1 2 5h2l4 4 4 8v10l1 2v6h2v11l-6-5-3-17-6-16-10-18-11-12-12-9-16-8-15-5-3-3 1-1-6-1z" fill="#2E2E2F"/>
<path transform="translate(652,701)" d="m0 0 1 2 4 2 8 9 2 6 2 2-1 4h-2l-2-3-1 2h-2l1 5 2 2 3-3 5 2 4 8 2 9 1 3v3h2l2 9 6 5v6h-2l-1 3h-3l-4 1-12-25-9-20-8-19-5-6 1-3 3 1v-3z" fill="#2E2E30"/>
<path transform="translate(287,723)" d="m0 0h22l9 3 10 6-1 2-3-1 1 4-2-1v-2h-9l-6-3-8 1-7 3-16 4-9 1-7 2-1 2-4 2-3 3-2 4-5-3 1-5 5-6 10-7 13-6z" fill="#2C2C2E"/>
<path transform="translate(1288,719)" d="m0 0h14l16 3 12 6 7 5-2 4-1-2h-2l-1 3-1-2-29-2h-15l-20-1 2-2 17-1 18 1 2 1 19 1-1-1-9-1-4-1h-12l-12-1-5 1h-17l3-6 13-4z" fill="#2D2D2F"/>
<path transform="translate(327,690)" d="m0 0 5 2 7 3 5 5 8 1 6 7 1 5-4 1-1 2-2-3-2 1v-2h-3l5 6 2 1v2l5-1v2l2-1-1-2 3-1 5 8 1 7 3 3-1 7h-4l-2-6-1-1-2 4-8-14-7-9-14-9-8-3-6-2 3-2 3 1 2-4 2 1v-2l-2-1 2-1v-2h-2z" fill="#2E2E2F"/>
<path transform="translate(657,811)" d="m0 0 7 2v2h5v-2l3-1 10 21-1 3h-4l-1 3 3 8 2 2 2 7 3 4v2h2l2 5h2l-1 2-7-1-3-3v-2h-2l-5-14-8-8-4-8-3-8-2-12z" fill="#3F3F40"/>
<path transform="translate(437,766)" d="m0 0 3 1-1 6 2 4 4 4 1-3h3l-1 10 4 4-3 3h4l2 14 1 3v8l1-1v-8h1l2 7 2 5-1 3-1-2-2 2-4-6-3-3-1-11-5 1-3-4v-2h-2l-1-2v19l-2-2-3-10-1-17 2-15z" fill="#3E3E3F"/>
<path transform="translate(1232,762)" d="m0 0 2 3v7l8-3 1-2h4l1-2 1 2 2-2 1 5v4h-2l-2-4-4 1-1 3-3 2-1 5 1 5 4 1v3l2 1-3 5v8l1 2-3-1v-2l-5 3-1 2-4-1-2 3-1-5v-28z" fill="#3F3F40"/>
<path transform="translate(1129,765)" d="m0 0h1v9h2l1-7 2 2v8l2 5-1 9 2 9h4l1-5h1v5l-3 6h-3l-1 3h2v2h-3l3 3v4l-2 1 1 4v4l3 1-1 5-3 3-1 2-3-4v-9-3l1-6-2-16-1-11h-3l-1 31v59l-3-2 1-2v-70l2-29z" fill="#3F3F40"/>
<path transform="translate(1048,651)" d="m0 0h11l6 5 2 5-1 5-5 4-7 2h-8l-7-4-2-5 1-5 5-5z" fill="#FEFEFE"/>
<path transform="translate(491,719)" d="m0 0h21l14 3 3 3v3l7 3-4 1-7-2-2-1-1 2h-25l-7 1h-16l-2-2 4-1 10 1 6-2 8-1 4 1h17v-1h-11l-2-1h-14l-11 3-5-1-5-2 3-3 9-3z" fill="#2E2E30"/>
<path transform="translate(241,758)" d="m0 0 2 4-2 5v3l2-4 4 10-2 2 2 1-3 7 1 3-2 2-2-6v-6l-1 4v22l3-10 2 4 3 1-1 2 3-1 3 2-1 5-8 4-1 4 1 3-2 4-1 7h-2l-1-12 1 21-1 7v10l-2 1v-59l3-32z" fill="#3F3F40"/>
<path transform="translate(1102,776)" d="m0 0h2l-1 16-1 19v26l1 23v8l2 10 14 1h4l-1 3-5 1-7-2-8-3-3-4v-10l1-5v-18l-1-2v-10h-3l-3-1-1-4 1-1-1-3h2l-1-3v-5-4-1l-1-11 5 2h3v4l-1 1h1z" fill="#3F3F40"/>
<path transform="translate(1062,706)" d="m0 0 3 2-1 8v3 13h2v10l2-12h1l1 8 1 3 3 1v3l4 2-2 2-6 1v6l1 5-1 3-1 9-2 5-3-1v-3h-2z" fill="#3F3F40"/>
<path transform="translate(639,741)" d="m0 0 3 4 7 14-1 5h-2l-1 4-1 9-4-2-6-10-3-8v-7l1-2 5-1 1-4z" fill="#3F3F40"/>
<path transform="translate(367,758)" d="m0 0h1l2 9 1 4 1 5v8l3 3-3 2 2 1h-2v15l2-3 1-2h2v13h-2v12l-1 2h-2l-1 2-1 42h-1l-1-92z" fill="#3F3F40"/>
<path transform="translate(954,704)" d="m0 0h2l1 2 6-1 8 5 3 1v3l4 1 1 3 3 1 1 3 3 1 5 11 2 2-1 3-1-3h-2l-3-4-3 3-9-11-7-7-13-9-1-3z" fill="#2E2E2F"/>
<path transform="translate(1038,708)" d="m0 0h2l1 4v120l-1 45-2-1v-77l-1-53h-2l1 6-5-4 1-3 2 1v-2h4z" fill="#404041"/>
<path transform="translate(652,701)" d="m0 0 1 2 4 2 8 9 2 6 2 2-1 4h-2l-2-3-1 2h-2l-1 4h-2l-1 2-6-15-6-8 1-3 3 1v-3z" fill="#2D2D2F"/>
<path transform="translate(1168,722)" d="m0 0 3 1h-2v2l-2 2 1 4-2 5h-2v3l-10 4v1h-5l-2-2-5 3h-2v2l-3 1 2-5 8-8 14-10z" fill="#3F3F40"/>
<path transform="translate(1598,461)" d="m0 0h2v50l-6-2h-4l-1-5 1-5h2v-3l4-1 1-5-2-1-2-5 2-10h2l1-5-4-2 1-3h2z" fill="#2C2C2E"/>
<path transform="translate(876,724)" d="m0 0 1 2 5 1 1 2 5-1 7-2 3 1-5 5v1l-9 1v3l-6-3-8 6-5 2-3 3-4 3-2-3-1 3-2-2 9-10 8-7z" fill="#3F3F40"/>
<path transform="translate(719,859)" d="m0 0 1 4v7l-1 6 4-2 6 1-1 5-6 3h-7v2h-3v2l-4 1-4-4-5-3 3-1h2l-4-6 1-2 5 2 3 2 4-1 4-9z" fill="#3F3F40"/>
<path transform="translate(451,740)" d="m0 0 2 1 1 3 6-1 2-2 3 1-3 4-2 7h-2l-2 2h-2l-3 1-2 6v2l-3 1v-3l-6-1-1 2 1-5 5-10z" fill="#3E3F3F"/>
<path transform="translate(335,843)" d="m0 0h2v4h2l1 2v10l2 3 3-3h2l1 16 3 4 3 2-5-1-9-5 1-4 1-2-6 1-1-1-1-17v-8z" fill="#404041"/>
<path transform="translate(581,841)" d="m0 0h1l1 5 1 3-3 1-1 4h-3l-1 1-2 8h-3l-1 3-4 1v2h-3v2l-6 3-6-1-1-2 9-6 12-11 7-8z" fill="#3F3F40"/>
<path transform="translate(262,732)" d="m0 0h4l2 3 4-1 10 1-2 3-10 2-8 1-2 3-4 2-3 3-2 4-5-3 1-5 5-6z" fill="#2D2D2E"/>
<path transform="translate(644,779)" d="m0 0 6 1 2 8h2l2 4 2 5-1 4-2 7-4-5-8-16-1-1v-5z" fill="#404041"/>
<path transform="translate(852,747)" d="m0 0 2 2 7 2 1-3h5l1 4-1 2h-2l-1 4-3 2-6-1-1 2-4 1 2 2-5 1-1 2-1-3 4-11z" fill="#3F3F40"/>
<path transform="translate(598,781)" d="m0 0 4 1 1 3-1 4 1 5v13l-1 3h-2l1 3-1 3-4-1-1-5v-8l1-5 1-14z" fill="#2D2D2E"/>
<path transform="translate(1333,841)" d="m0 0 5 1-5 5-13 8-13 5-11 2h-10l-9-2v-1h13v-2l5-1h14l6-2 5-3 2-3 4-1 1-2 5-2z" fill="#3F3F40"/>
<path transform="translate(1068,660)" d="m0 0 4 4v6l-5 6-2 1-16 1-7-2-2-3 4-1 2 1v2l7 1 1-5 8-3 4-4h2z" fill="#2C2C2E"/>
<path transform="translate(1370,847)" d="m0 0 1 3-3 6-1 5-1 17-2-1v-7l-1-1-10-1-5-2 15-12 4-2 2-4z" fill="#3F3F40"/>
<path transform="translate(1206,830)" d="m0 0 4 1 5 6 6 9 7 8-2 4-3-1-5-6v-2l-4-2v-5l-4-1-4-4v-2l-2-1v-2z" fill="#313132"/>
<path transform="translate(1232,711)" d="m0 0h3v2l3-1 1 4-6 5-8 10-4 6-2-4 2-5 2-1v-2h2l-1-3 6-9z" fill="#3F3F40"/>
<path transform="translate(289,725)" d="m0 0h12v2l-4 3-5 1-4 1-1 1h-6l-4 2h-8-3v-3l-2-1 6-3 3 1-1 2 12-2 5-2z" fill="#353635"/>
<path transform="translate(425,846)" d="m0 0 4 2 8 10 7 6v2l-3-1-5-1v-4l-3 1-5-1-4-2-1-5-2-3z" fill="#343434"/>
<path transform="translate(1310,690)" d="m0 0 8 1 6 2 5-1 5 1v2l3 1-2 4-2-1v-4h-2l-2 6-8-1-8-4 1-2-6-1z" fill="#2D2E2F"/>
<path transform="translate(1135,715)" d="m0 0 2 2-8 8-8 11-3 3-1-5v-6l4-4 8-7 5-1z" fill="#3F3F40"/>
<path transform="translate(1358,764)" d="m0 0 2 4 1 9v18l-3 19-2 3v-3h-2l1-6 2-3v-5l1-5-1-4v-18z" fill="#3F3F40"/>
<path transform="translate(881,882)" d="m0 0 18 1h26l2 2-4 1v-2l-6 3h-7v-2h-2v2l-8 1-8-1-1-1-6-1v-2z" fill="#303031"/>
<path transform="translate(697,807)" d="m0 0 5 1 5 4 1 6-4 3 2 1v3l2 1-4-1v-2l-4-1-4-8v-6z" fill="#2D2D2F"/>
<path transform="translate(287,723)" d="m0 0h22v1l-18 2-2 2-9 3h-8v-4l9-3z" fill="#303032"/>
<path transform="translate(531,733)" d="m0 0 8 1-3 4 4 5 1 3h5l2 7-4-1-2-4-3 1-3-3-3-2-2-2-1-5v-3z" fill="#3F3F40"/>
<path transform="translate(1255,744)" d="m0 0h4l-1 5-4 7-6 1-3-1v-7l4-3z" fill="#3F3F40"/>
<path transform="translate(572,723)" d="m0 0 2 1v2l5 2h4v2l3 1 1 5h-3v2l5 5-1 3h-3l-9-14-4-5z" fill="#2F2F30"/>
<path transform="translate(1134,810)" d="m0 0 4 2 1 4v3h-2l1 4v4l3 1-1 5-3 3-1 2-3-4v-9-3l1-6-1-5z" fill="#3F3F40"/>
<path transform="translate(498,727)" d="m0 0 6 1h20l-2 3h-25l-7 1h-16l-2-2 4-1 10 1 6-2z" fill="#2C2C2E"/>
<path transform="translate(195,837)" d="m0 0h2l2 4 2 7 1 5v8l-2-2-1-9-5 3h-4l1-5 2-5z" fill="#2C2C2E"/>
<path transform="translate(1127,798)" d="m0 0h1l2 13 1 7-2 7v19l2 2-1 3h-3l-1-16v-24z" fill="#2F2F30"/>
<path transform="translate(482,882)" d="m0 0 1 2 9-1 25-1v2l-4 3h-25l-2-1-6-1z" fill="#323333"/>
<path transform="translate(1597,442)" d="m0 0h3v18l-2-1v-2h-5l2-4 2-3-7-2-1-4 3-1z" fill="#2C2C2E"/>
<path transform="translate(1284,730)" d="m0 0 19 1 2 1 20 1 2 2-26-1h-15l-20-1 2-2z" fill="#2C2C2E"/>
<path transform="translate(407,782)" d="m0 0h1v9l-1 2h2l1 5v9h-3v-2l-3-1-2-5 2-11h2z" fill="#2D2D2E"/>
<path transform="translate(1597,575)" d="m0 0h3v13h-3l-2-1-5-1 1-8z" fill="#2C2C2E"/>
<path transform="translate(421,854)" d="m0 0 3 2v2h4l2 2 5 1 1-2 1 2-1 3-6-1 1 1-3 1-7-1-3-4h-2l1-4h4z" fill="#3F3F40"/>
<path transform="translate(892,793)" d="m0 0h10l-1 4-2 2 1 4-9 1 1-3-3-1-1-3z" fill="#3F3F40"/>
<path transform="translate(1394,841)" d="m0 0 3 1 1 2v7l-2 4 1 5-1 7h-2l-2-14v-7z" fill="#2C2C2E"/>
<path transform="translate(382,820)" d="m0 0 2 1 1 7v6l-2 1v9l-3 2-1-9v-14h2z" fill="#404041"/>
<path transform="translate(216,746)" d="m0 0h3l-2 9-2 6-1 9h-1v-9l-3 1 1-10 3-5z" fill="#303031"/>
<path transform="translate(411,820)" d="m0 0 5 3v7l-1 4 3 6-1 2-5-5-1-3 1-3-2-2-2-5 2-2z" fill="#2C2D2E"/>
<path transform="translate(1191,710)" d="m0 0 1 3-5 5-3 1 3 2-2 4h-4l-2-3h-8l2-2 10-4 7-4z" fill="#404041"/>
<path transform="translate(1599,513)" d="m0 0h1v19l-7 1-1-4 4-3v-6-4z" fill="#2C2C2E"/>
<path transform="translate(459,826)" d="m0 0 3 2 1 6h6l9 3-1 3h-10v5l-2-2-1-5-6-7z" fill="#3E3E3F"/>
<path transform="translate(814,791)" d="m0 0h1l1 10-1 4h-2v2l-4 1-1-5 1-4 2 1v-2l-2-1 1-4 4 1z" fill="#2D2D2E"/>
<path transform="translate(403,806)" d="m0 0 1 2 4 1v2l2 1v6h-2l1 4-2 2-3-4-1-6-3-3 1-4 1 2z" fill="#2C2C2E"/>
<path transform="translate(1255,732)" d="m0 0 3 1-1 4h-2l-1 3h-1v2l2 1-6 2-2 4-5 1 1-3 2 1-1-3 4-2 2-7z" fill="#2F2F30"/>
<path transform="translate(1044,688)" d="m0 0h10v5l-6 2-8-2-3-2z" fill="#404041"/>
<path transform="translate(956,738)" d="m0 0 7 6-2 2 2 2-1 5-2 1-5-4-1-4 2-2z" fill="#3F3F40"/>
<path transform="translate(866,735)" d="m0 0 2 4-4 5-4 2-2 2-2-3-1 3-2-2 9-10z" fill="#3C3D3D"/>
<path transform="translate(1597,555)" d="m0 0h3v16l-5-2v-4l1-3-3-3v-3z" fill="#2C2C2E"/>
<path transform="translate(1337,752)" d="m0 0 6 1v6l2 3v3l2-4 2 1-2 9-3-1-4-11-3-3z" fill="#404041"/>
<path transform="translate(1216,841)" d="m0 0 5 5 7 8-2 4-3-1-5-6v-2l-4-2z" fill="#313132"/>
<path transform="translate(1260,835)" d="m0 0 9 1 7 4-2 1-7-2 2 3-4 3-1-3-4-3-3 2-1-3z" fill="#3E3E3F"/>
<path transform="translate(1196,797)" d="m0 0 1 2 3-1 2 2-1 14 2 1 1 4h-3l-3-8-3-11z" fill="#2C2C2E"/>
<path transform="translate(178,763)" d="m0 0 2 2-1 3v7l-2 1 1 9-1 7-2-3-2-5 1-8 2-5 1-7z" fill="#2C2C2E"/>
<path transform="translate(236,817)" d="m0 0 2 1 1 21-1 7v10l-2 1z" fill="#404041"/>
<path transform="translate(1202,797)" d="m0 0h1l2 13 3 12-1 3v-2l-4-2v-3-3l-3-1z" fill="#393939"/>
<path transform="translate(1595,404)" d="m0 0h5v13l-2 1v-2l-4-2-1-5h2z" fill="#2C2C2E"/>
<path transform="translate(860,813)" d="m0 0h2l1 5 4 2v2l2 1-6-1 4 4-5-1-4-4-2-4 1-3h2z" fill="#3F3F40"/>
<path transform="translate(973,760)" d="m0 0 2 4 1 3-7 1h-32v-1l28-1 7-4z" fill="#404041"/>
<path transform="translate(274,697)" d="m0 0 7 2-1 3-6 2h-8l2-1-1-3z" fill="#2D2D2F"/>
<path transform="translate(634,695)" d="m0 0 4 1-1 5 2 2-11-1v2l-2-1 1-2-2-2z" fill="#2C2C2E"/>
<path transform="translate(175,820)" d="m0 0 2 2 4 15-1 5-4-1 1-8-2-3z" fill="#2C2C2E"/>
<path transform="translate(1166,696)" d="m0 0h2v2l2 1-6 1-1 1 13-1 7 2v1l-24 1 1-5z" fill="#404041"/>
<path transform="translate(629,721)" d="m0 0 3 4 3 6-2 6-2-2 1-2-4 1-1-10z" fill="#3C3C3C"/>
<path transform="translate(854,867)" d="m0 0 6 4v2h-2l-1 7-6-2-1-2 2-1v-4-2h2z" fill="#3D3D3D"/>
<path transform="translate(425,846)" d="m0 0 4 2 3 4-2 4h-3l-1-2-4-2-1-2z" fill="#2F2F31"/>
<path transform="translate(728,846)" d="m0 0h3v2l-2 1-2 7-3 3h-3l1-7 2-4z" fill="#303132"/>
<path transform="translate(967,755)" d="m0 0h5l1 2v6l-9 1 2-6z" fill="#2E2E2F"/>
<path transform="translate(256,703)" d="m0 0h9l-1 3-12 5-5 1v-2l4-2 1-2h3z" fill="#2F2F31"/>
<path transform="translate(901,724)" d="m0 0 9 3v3l-3 2-7-1-2-6z" fill="#3F3F40"/>
<path transform="translate(912,883)" d="m0 0h13l2 2-4 1v-2l-6 3h-7v-2h-2v2h-6l1-3z" fill="#2C2C2E"/>
<path transform="translate(442,816)" d="m0 0h3l4 6 3 3v3h-2v-2h-2v-2h-2l-1 2-2-3-1-1h-2l-1-4h2z" fill="#3F3F40"/>
<path transform="translate(915,795)" d="m0 0 2 1 1 1 4-1-1 4-2 1h-9l-6-1 1-3 7 1 1-2z" fill="#404041"/>
<path transform="translate(828,851)" d="m0 0 9 5v2l3-1h3l6 5-4 1-2-3-3 1-4-1-3-2-5-3z" fill="#3F3F40"/>
<path transform="translate(721,800)" d="m0 0 1 3-7 17-3-4 2-5 4-7h2z" fill="#404041"/>
<path transform="translate(509,795)" d="m0 0h5l-2 5-1 4-5-1-1-1v-6z" fill="#404041"/>
<path transform="translate(785,713)" d="m0 0 2 4-2 3v4l-2 5-1 3h-5l2-6 5-10z" fill="#404041"/>
<path transform="translate(1246,816)" d="m0 0 4 1 2 4 5 4 1 5-4-2v-2h-2v-2l-5-1z" fill="#404041"/>
<path transform="translate(1597,425)" d="m0 0h3v14h-2v-2h-4v-3l2-1-1-7z" fill="#2C2C2E"/>
<path transform="translate(811,808)" d="m0 0 3 1 1 5 2 4 1 4h-2v4l-2-1-1-6-3-7z" fill="#2C2C2E"/>
<path transform="translate(200,751)" d="m0 0 5 1-1 5h-7l-1 3h-1v-6z" fill="#2C2C2E"/>
<path transform="translate(309,724)" d="m0 0 7 1 9 5-4 1-5-1v-2l-2 2-7-3 1-2z" fill="#373837"/>
<path transform="translate(712,819)" d="m0 0 2 1-2 5-4 5-5-4-1-3h2l2 2v-2h2v-2z" fill="#3F3F40"/>
<path transform="translate(756,721)" d="m0 0 2 1-3 9-3 4h-2l1-7 3-6z" fill="#404041"/>
<path transform="translate(1362,715)" d="m0 0 8 4v2h3l1 4-4 2-2-4-5-3-2-2z" fill="#353635"/>
<path transform="translate(1414,762)" d="m0 0h2l2 4-2 6h-6l1-5-1-2h3z" fill="#2C2C2E"/>
<path transform="translate(194,761)" d="m0 0 2 1 2 7 3-5 2-2-1 7-4 3-4-1-3-3h2z" fill="#2C2C2E"/>
<path transform="translate(740,753)" d="m0 0h3l-6 15-3-1 1-5z" fill="#3E3F3F"/>
<path transform="translate(1065,666)" d="m0 0 2 2-1 5-4 2-4-1v-2l-4-1 8-3z" fill="#363737"/>
<path transform="translate(1230,864)" d="m0 0 1 2h3l4 5-1 5-2-3v-3l-3 3-3-1-1-5z" fill="#3E3E3E"/>
<path transform="translate(478,736)" d="m0 0h5l2 3 3 1v1l-7 2-5 1 1-5z" fill="#2C2C2E"/>
<path transform="translate(259,734)" d="m0 0 1 2-3 3-2 1 1 3-5 2-5 3 2-4 4-5z" fill="#383939"/>
<path transform="translate(881,792)" d="m0 0h21v1l-10 1 1 2h-7l-5-2z" fill="#373837"/>
<path transform="translate(516,882)" d="m0 0 1 2-4 3h-25v-1h20l1-2z" fill="#2C2C2E"/>
<path transform="translate(1324,879)" d="m0 0h4v2l2 1-6 5-4-3 1-3z" fill="#2D2D2F"/>
<path transform="translate(1128,820)" d="m0 0 1 3v21l2 2-1 3h-3v-28z" fill="#2C2C2E"/>
<path transform="translate(748,738)" d="m0 0 2 1-2 6-4 8-2-2 1-5z" fill="#3F3F40"/>
<path transform="translate(457,811)" d="m0 0h1l2 7 2 5-1 3-1-2-2 2-3-4 1-3h1z" fill="#3F3F40"/>
<path transform="translate(589,826)" d="m0 0 1 3 1 1 3 2-9 6-3 3 2-5z" fill="#3E3E3E"/>
<path transform="translate(849,713)" d="m0 0 4 1-6 7-3 2-2-2 3-5h2v-2z" fill="#3F3F40"/>
<path transform="translate(548,872)" d="m0 0 2 1-4 4-4 1v2h-2v2h-2v-3l-4-1 11-4z" fill="#3F3F40"/>
<path transform="translate(407,782)" d="m0 0h1v9l-1 2h2v6l-5-3v-8h2z" fill="#2C2C2E"/>
<path transform="translate(1326,732)" d="m0 0h10v4l-2 1v-2h-2l-1 3-1-2h-3v-2l-2-1z" fill="#313132"/>
<path transform="translate(409,814)" d="m0 0 4 1 2 8-4-2-1 3h-2v-6z" fill="#333434"/>
<path transform="translate(1598,609)" d="m0 0 2 1v7h-4l-2-4v-3z" fill="#2C2C2E"/>
<path transform="translate(1102,914)" d="m0 0 6 1 2 2-1 3h-2l-5-1-1-3z" fill="#3F3F40"/>
<path transform="translate(1204,847)" d="m0 0h7l1 3 2 1-2 2h-3v-2l-4 1z" fill="#404041"/>
<path transform="translate(1207,836)" d="m0 0 5 2 3-1 2 7-3 1v-3l-4-1-4-4z" fill="#2E2E30"/>
<path transform="translate(811,767)" d="m0 0h3l2 4-3 4-1 2-3-1 1-7z" fill="#2C2C2E"/>
<path transform="translate(1331,695)" d="m0 0h2l1 4 2 1-2 4-6-2 1-4z" fill="#313232"/>
<path transform="translate(1274,882)" d="m0 0 7 1 2 2 9 1v1l-10 1-6-3z" fill="#2C2C2E"/>
<path transform="translate(1248,738)" d="m0 0h1v6l-4 2v2l-5 1 2-5z" fill="#3E3E3F"/>
<path transform="translate(1068,660)" d="m0 0 4 4v6l-4 2v-6l-2 1v-3h2z" fill="#303131"/>
<path transform="translate(1130,864)" d="m0 0 3 2v2l2 1-1 3-5 1-1-2z" fill="#3D3D3E"/>
<path transform="translate(1157,804)" d="m0 0h2l1 5h2l-2 4-4-1v-4z" fill="#404041"/>
<path transform="translate(210,770)" d="m0 0h3v9l-1 10h-1l-1-9z" fill="#3A3B3B"/>
<path transform="translate(373,876)" d="m0 0 2 1-1 3 3 3v2l-5 2-1-5 1-4z" fill="#404041"/>
<path transform="translate(400,779)" d="m0 0 3 1 1 5-2 7-2-3-1-3z" fill="#2C2C2E"/>
<path transform="translate(1251,741)" d="m0 0 1 3-3 1-2 4-5 1 1-3 2 1-1-3z" fill="#303131"/>
<path transform="translate(926,721)" d="m0 0h4v2l6 2 3 2v2l-10-3-3-3z" fill="#2C2C2E"/>
<path transform="translate(561,711)" d="m0 0 1 3 3 1v2l3 1v2l3 1v2l-4-2-7-6z" fill="#2F2F31"/>
<path transform="translate(1046,649)" d="m0 0h10l3 2-11 1-7 2z" fill="#404041"/>
<path transform="translate(1253,839)" d="m0 0 2 4-1 2 3-1v3l3 1-2 2-8-6 2-1-1-3z" fill="#3E3F3F"/>
<path transform="translate(683,837)" d="m0 0 3 4 2 6-6-2-1-3z" fill="#404041"/>
<path transform="translate(902,791)" d="m0 0h19l-3 1-1 2h-4l-9-1h-2z" fill="#404041"/>
<path transform="translate(879,791)" d="m0 0h23v1h-21l-1 3-5-2z" fill="#3D3E3E"/>
<path transform="translate(367,752)" d="m0 0h2l2 5v-2l2 1 1 3h-3v2h-3z" fill="#2D2D2F"/>
<path transform="translate(1302,882)" d="m0 0h5v2h-7l-1 3h-5l-1-4z" fill="#2C2C2E"/>
<path transform="translate(238,868)" d="m0 0 2 4 1 5 2 1-3 2-5-1 2-2z" fill="#3F3F40"/>
<path transform="translate(694,859)" d="m0 0 3 4 4 8h-2v-2h-3v-2l-3-1z" fill="#3E3F3F"/>
<path transform="translate(411,840)" d="m0 0 5 5 1 2-2 2h-5z" fill="#3F3F40"/>
<path transform="translate(408,775)" d="m0 0 2 1v16l-3 1 1-15z" fill="#3B3B3B"/>
<path transform="translate(765,756)" d="m0 0 2 4-1 2 3 1-3 3h-2l-2-4z" fill="#404041"/>
<path transform="translate(988,738)" d="m0 0 3 3 4 8v2h-3l-4-9z" fill="#323233"/>
<path transform="translate(592,732)" d="m0 0 2 1v2l4 1-2 1h-5l-2 1-1 2-1-2v-4l4-1z" fill="#2C2C2E"/>
<path transform="translate(1261,880)" d="m0 0 6 1 3 4-5 1-5-5z" fill="#2D2D2F"/>
<path transform="translate(823,833)" d="m0 0 6 4 1 4-3 1-4-4z" fill="#2D2D2F"/>
<path transform="translate(688,792)" d="m0 0 3 1 2 5-1 4h-2l-2-4z" fill="#313132"/>
<path transform="translate(1129,777)" d="m0 0h2l1 7h-2l-1 3-1-1v-8z" fill="#353635"/>
<path transform="translate(653,771)" d="m0 0 2 2 3 7-1 3-4-3-1-8z" fill="#3F3F40"/>
<path transform="translate(539,701)" d="m0 0 4 1 7 3 3 2v2l-5-2-8-4z" fill="#313233"/>
<path transform="translate(941,695)" d="m0 0 5 2v2h-2l1 4-5-2v-5z" fill="#2C2C2E"/>
<path transform="translate(1310,690)" d="m0 0 8 1 2 4-12-2z" fill="#2C2D2E"/>
<path transform="translate(1597,671)" d="m0 0 3 1v8l-3-1v-2h-3l1-2 2 1-1-3z" fill="#2C2C2E"/>
<path transform="translate(1088,933)" d="m0 0 5 1-1 4h-5v-4z" fill="#404041"/>
<path transform="translate(482,882)" d="m0 0 1 2 16-1-4 2-13 1-2-2z" fill="#2C2C2E"/>
<path transform="translate(989,836)" d="m0 0h1v8l-1 2-4 1-2 1 2-4z" fill="#3C3D3D"/>
<path transform="translate(407,794)" d="m0 0 3 4v6l-5-3-1-5h2z" fill="#373837"/>
<path transform="translate(1349,784)" d="m0 0 3 1v4l-1 4-4 2v-2h2l-1-7z" fill="#404041"/>
<path transform="translate(774,749)" d="m0 0 3 2-1 7-5-1 2-3z" fill="#2C2C2E"/>
<path transform="translate(369,734)" d="m0 0h2l1 7-2 2h-3v-6h2z" fill="#2C2C2E"/>
<path transform="translate(461,732)" d="m0 0 1 4 4 2 1 2h-6v-4l-4-1z" fill="#3F3F40"/>
<path transform="translate(567,712)" d="m0 0h5l2 4h2l-1 7-2-1 2-5-9-3z" fill="#404041"/>
<path transform="translate(1052,700)" d="m0 0 3 1v2l6 1-4 1-11-2 2-2z" fill="#404041"/>
<path transform="translate(419,838)" d="m0 0 5 2-1 3-3 1v3h-2l-1-4z" fill="#2C2C2E"/>
<path transform="translate(1261,837)" d="m0 0 6 2 2 3-4 3-1-3-3-3z" fill="#404041"/>
<path transform="translate(1389,875)" d="m0 0 3 1 2 5-3 1-4-3z" fill="#3E3E3F"/>
<path transform="translate(758,780)" d="m0 0 1 4-2 1v3l-3 2-1-5h2l2-4z" fill="#2C2C2E"/>
<path transform="translate(1236,759)" d="m0 0 4 1 1 3-7 2-1-3 3-1z" fill="#2C2C2E"/>
<path transform="translate(1235,755)" d="m0 0 2 2 1-2 2 1-1 5-1-2h-2v2l-3 1 1-5z" fill="#363737"/>
<path transform="translate(1261,729)" d="m0 0 5 2-3 5-3-1-1-5z" fill="#2C2C2E"/>
<path transform="translate(780,725)" d="m0 0h2l1 4-1 3h-5l2-6z" fill="#3D3D3D"/>
<path transform="translate(1074,724)" d="m0 0 1 3-2 7-1 3-2-1 1-6v-3l3-1z" fill="#404041"/>
<path transform="translate(1166,696)" d="m0 0h2v2l2 1-6 1-3 3-2-3 4-3z" fill="#3F3F40"/>
</svg>
